<svg xmlns="http://www.w3.org/2000/svg" style="display:none">
  <!-- Plus / add -->
  <symbol id="add" viewBox="0 0 24 24" fill="none" stroke="currentColor" stroke-width="2" stroke-linecap="round" stroke-linejoin="round">
    <line x1="12" y1="5" x2="12" y2="19"/><line x1="5" y1="12" x2="19" y2="12"/>
  </symbol>

  <!-- MapPinPlus / add_location_alt -->
  <symbol id="add_location_alt" viewBox="0 0 24 24" fill="none" stroke="currentColor" stroke-width="2" stroke-linecap="round" stroke-linejoin="round">
    <path d="M19.43 12.935c.357-.967.57-1.955.57-2.935a8-8 0 0 0-16 0c0 4.993 5.539 10.193 7.399 11.799a1 1 0 0 0 1.202 0 32 32 0 0 0 2.56-2.327"/><circle cx="12" cy="10" r="3"/><path d="M16 18h6"/><path d="M19 15v6"/>
  </symbol>

  <!-- AtSign / alternate_email -->
  <symbol id="alternate_email" viewBox="0 0 24 24" fill="none" stroke="currentColor" stroke-width="2" stroke-linecap="round" stroke-linejoin="round">
    <circle cx="12" cy="12" r="4"/><path d="M16 8v5a3 3 0 0 0 6 0v-1a10 10 0 1 0-4 8"/>
  </symbol>

  <!-- AppWindow / app_shortcut -->
  <symbol id="app_shortcut" viewBox="0 0 24 24" fill="none" stroke="currentColor" stroke-width="2" stroke-linecap="round" stroke-linejoin="round">
    <rect x="2" y="4" width="20" height="16" rx="2"/><path d="M10 4v4"/><path d="M2 8h20"/><path d="M6 4v4"/>
  </symbol>

  <!-- ArrowRight / arrow_forward -->
  <symbol id="arrow_forward" viewBox="0 0 24 24" fill="none" stroke="currentColor" stroke-width="2" stroke-linecap="round" stroke-linejoin="round">
    <path d="M5 12h14"/><path d="m12 5 7 7-7 7"/>
  </symbol>

  <!-- Award / award_star -->
  <symbol id="award_star" viewBox="0 0 24 24" fill="none" stroke="currentColor" stroke-width="2" stroke-linecap="round" stroke-linejoin="round">
    <path d="m15.477 12.89 1.515 8.526a.5.5 0 0 1-.81.47l-3.58-2.687a1 1 0 0 0-1.197 0l-3.586 2.686a.5.5 0 0 1-.81-.469l1.514-8.526"/><circle cx="12" cy="8" r="6"/>
  </symbol>

  <!-- BatteryCharging / battery_charging_full -->
  <symbol id="battery_charging_full" viewBox="0 0 24 24" fill="none" stroke="currentColor" stroke-width="2" stroke-linecap="round" stroke-linejoin="round">
    <path d="M15 7h1a2 2 0 0 1 2 2v6a2 2 0 0 1-2 2h-2"/><path d="M6 7H4a2 2 0 0 0-2 2v6a2 2 0 0 0 2 2h1"/><path d="m11 7-3 5h4l-3 5"/><line x1="22" x2="22" y1="11" y2="13"/>
  </symbol>

  <!-- Bluetooth -->
  <symbol id="bluetooth" viewBox="0 0 24 24" fill="none" stroke="currentColor" stroke-width="2" stroke-linecap="round" stroke-linejoin="round">
    <path d="m7 7 10 10-5 5V2l5 5L7 17"/>
  </symbol>

  <!-- MessageCircle / chat_bubble -->
  <symbol id="chat_bubble" viewBox="0 0 24 24" fill="none" stroke="currentColor" stroke-width="2" stroke-linecap="round" stroke-linejoin="round">
    <path d="M7.9 20A9 9 0 1 0 4 16.1L2 22Z"/>
  </symbol>

  <!-- X / close -->
  <symbol id="close" viewBox="0 0 24 24" fill="none" stroke="currentColor" stroke-width="2" stroke-linecap="round" stroke-linejoin="round">
    <path d="M18 6 6 18"/><path d="m6 6 12 12"/>
  </symbol>

  <!-- Wind / cyclone -->
  <symbol id="cyclone" viewBox="0 0 24 24" fill="none" stroke="currentColor" stroke-width="2" stroke-linecap="round" stroke-linejoin="round">
    <path d="M17.7 7.7a2.5 2.5 0 1 1 1.8 4.3H2"/><path d="M9.6 4.6A2 2 0 1 1 11 8H2"/><path d="M12.6 19.4A2 2 0 1 0 14 16H2"/>
  </symbol>

  <!-- Moon / dark_mode -->
  <symbol id="dark_mode" viewBox="0 0 24 24" fill="none" stroke="currentColor" stroke-width="2" stroke-linecap="round" stroke-linejoin="round">
    <path d="M12 3a6 6 0 0 0 9 9 9 9 0 1 1-9-9Z"/>
  </symbol>

  <!-- Leaf / eco -->
  <symbol id="eco" viewBox="0 0 24 24" fill="none" stroke="currentColor" stroke-width="2" stroke-linecap="round" stroke-linejoin="round">
    <path d="M11 20A7 7 0 0 1 9.8 6.9C15.5 4.9 17 3.5 19 1c1 2 2 4.5 2 8 0 5.5-4.78 11-10 11Z"/><path d="M2 21c0-3 1.85-5.36 5.08-6C9.5 14.52 12 13 13 12"/>
  </symbol>

  <!-- PlugZap / ev_station -->
  <symbol id="ev_station" viewBox="0 0 24 24" fill="none" stroke="currentColor" stroke-width="2" stroke-linecap="round" stroke-linejoin="round">
    <path d="M6.3 20.3a2.4 2.4 0 0 0 3.4 0L12 18l-6-6-2.3 2.3a2.4 2.4 0 0 0 0 3.4Z"/><path d="m2 22 3-3"/><path d="M7.5 13.5 10 11"/><path d="M10.5 16.5 13 14"/><path d="m18 3-4 4h6l-4 4"/>
  </symbol>

  <!-- Compass / explore -->
  <symbol id="explore" viewBox="0 0 24 24" fill="none" stroke="currentColor" stroke-width="2" stroke-linecap="round" stroke-linejoin="round">
    <circle cx="12" cy="12" r="10"/><polygon points="16.24 7.76 14.12 14.12 7.76 16.24 9.88 9.88 16.24 7.76"/>
  </symbol>

  <!-- Smile / face_nod -->
  <symbol id="face_nod" viewBox="0 0 24 24" fill="none" stroke="currentColor" stroke-width="2" stroke-linecap="round" stroke-linejoin="round">
    <circle cx="12" cy="12" r="10"/><path d="M8 14s1.5 2 4 2 4-2 4-2"/><line x1="9" x2="9.01" y1="9" y2="9"/><line x1="15" x2="15.01" y1="9" y2="9"/>
  </symbol>

  <!-- Home / home_repair_service -->
  <symbol id="home_repair_service" viewBox="0 0 24 24" fill="none" stroke="currentColor" stroke-width="2" stroke-linecap="round" stroke-linejoin="round">
    <path d="m3 9 9-7 9 7v11a2 2 0 0 1-2 2H5a2 2 0 0 1-2-2z"/><polyline points="9 22 9 12 15 12 15 22"/>
  </symbol>

  <!-- Sun / light_mode -->
  <symbol id="light_mode" viewBox="0 0 24 24" fill="none" stroke="currentColor" stroke-width="2" stroke-linecap="round" stroke-linejoin="round">
    <circle cx="12" cy="12" r="4"/><path d="M12 2v2"/><path d="M12 20v2"/><path d="m4.93 4.93 1.41 1.41"/><path d="m17.66 17.66 1.41 1.41"/><path d="M2 12h2"/><path d="M20 12h2"/><path d="m6.34 17.66-1.41 1.41"/><path d="m19.07 4.93-1.41 1.41"/>
  </symbol>

  <!-- Map -->
  <symbol id="map" viewBox="0 0 24 24" fill="none" stroke="currentColor" stroke-width="2" stroke-linecap="round" stroke-linejoin="round">
    <path d="M14.106 5.553a2 2 0 0 0 1.788 0l3.659-1.83A1 1 0 0 1 21 4.619v12.764a1 1 0 0 1-.553.894l-4.553 2.277a2 2 0 0 1-1.788 0l-4.212-2.106a2 2 0 0 0-1.788 0l-3.659 1.83A1 1 0 0 1 3 19.381V6.618a1 1 0 0 1 .553-.894l4.553-2.277a2 2 0 0 1 1.788 0z"/><path d="M15 5.764v15"/><path d="M9 3.236v15"/>
  </symbol>

  <!-- Menu -->
  <symbol id="menu" viewBox="0 0 24 24" fill="none" stroke="currentColor" stroke-width="2" stroke-linecap="round" stroke-linejoin="round">
    <line x1="4" x2="20" y1="12" y2="12"/><line x1="4" x2="20" y1="6" y2="6"/><line x1="4" x2="20" y1="18" y2="18"/>
  </symbol>

  <!-- SprayCan / mop -->
  <symbol id="mop" viewBox="0 0 24 24" fill="none" stroke="currentColor" stroke-width="2" stroke-linecap="round" stroke-linejoin="round">
    <path d="M10 10v5"/><path d="M14 10v5"/><path d="M6 10v5"/><path d="M18 10v5"/><path d="M3 15h18"/><path d="M12 2v4"/><path d="M9 6h6"/>
  </symbol>

  <!-- Factory / precision_manufacturing -->
  <symbol id="precision_manufacturing" viewBox="0 0 24 24" fill="none" stroke="currentColor" stroke-width="2" stroke-linecap="round" stroke-linejoin="round">
    <path d="M2 20a2 2 0 0 0 2 2h16a2 2 0 0 0 2-2V8l-7 5V8l-7 5V4a2 2 0 0 0-2-2H4a2 2 0 0 0-2 2Z"/>
  </symbol>

  <!-- Minus / remove -->
  <symbol id="remove" viewBox="0 0 24 24" fill="none" stroke="currentColor" stroke-width="2" stroke-linecap="round" stroke-linejoin="round">
    <path d="M5 12h14"/>
  </symbol>

  <!-- Route -->
  <symbol id="route" viewBox="0 0 24 24" fill="none" stroke="currentColor" stroke-width="2" stroke-linecap="round" stroke-linejoin="round">
    <circle cx="6" cy="19" r="3"/><path d="M9 19h8.5a3.5 3.5 0 0 0 0-7h-11a3.5 3.5 0 0 1 0-7H15"/><circle cx="18" cy="5" r="3"/>
  </symbol>

  <!-- Radar / sensors -->
  <symbol id="sensors" viewBox="0 0 24 24" fill="none" stroke="currentColor" stroke-width="2" stroke-linecap="round" stroke-linejoin="round">
    <path d="M19.07 4.93A10 10 0 0 0 6.99 3.34"/><path d="M4 6h.01"/><path d="M2.29 9.62A10 10 0 1 0 21.31 8.35"/><path d="M16.24 7.76A6 6 0 1 0 8.23 16.67"/><path d="M12 18h.01"/><path d="M17.99 11.66A6 6 0 0 1 15.77 16.67"/><circle cx="12" cy="12" r="2"/>
  </symbol>

  <!-- Send -->
  <symbol id="send" viewBox="0 0 24 24" fill="none" stroke="currentColor" stroke-width="2" stroke-linecap="round" stroke-linejoin="round">
    <path d="M14.536 21.686a.5.5 0 0 0 .937-.024l6.5-19a.496.496 0 0 0-.635-.635l-19 6.5a.5.5 0 0 0-.024.937l7.93 3.18a2 2 0 0 1 1.112 1.11z"/><path d="m21.854 2.147-10.94 10.939"/>
  </symbol>

  <!-- MonitorPlay / smart_display -->
  <symbol id="smart_display" viewBox="0 0 24 24" fill="none" stroke="currentColor" stroke-width="2" stroke-linecap="round" stroke-linejoin="round">
    <rect width="20" height="14" x="2" y="3" rx="2"/><path d="M10 9.5 14 12l-4 2.5z"/><path d="M12 17v4"/><path d="M8 21h8"/>
  </symbol>

  <!-- Bot / smart_toy -->
  <symbol id="smart_toy" viewBox="0 0 24 24" fill="none" stroke="currentColor" stroke-width="2" stroke-linecap="round" stroke-linejoin="round">
    <path d="M12 8V4H8"/><rect width="16" height="12" x="4" y="8" rx="2"/><path d="M2 14h2"/><path d="M20 14h2"/><path d="M15 13v2"/><path d="M9 13v2"/>
  </symbol>

  <!-- Star -->
  <symbol id="star" viewBox="0 0 24 24" fill="none" stroke="currentColor" stroke-width="2" stroke-linecap="round" stroke-linejoin="round">
    <polygon points="12 2 15.09 8.26 22 9.27 17 14.14 18.18 21.02 12 17.77 5.82 21.02 7 14.14 2 9.27 8.91 8.26 12 2"/>
  </symbol>

  <!-- Ruler / straighten -->
  <symbol id="straighten" viewBox="0 0 24 24" fill="none" stroke="currentColor" stroke-width="2" stroke-linecap="round" stroke-linejoin="round">
    <path d="M21.3 15.3a2.4 2.4 0 0 1 0 3.4l-2.6 2.6a2.4 2.4 0 0 1-3.4 0L2.7 8.7a2.41 2.41 0 0 1 0-3.4l2.6-2.6a2.41 2.41 0 0 1 3.4 0Z"/><path d="m14.5 12.5 2-2"/><path d="m11.5 9.5 2-2"/><path d="m8.5 6.5 2-2"/><path d="m17.5 15.5 2-2"/>
  </symbol>

  <!-- CircleGauge / timer -->
  <symbol id="timer" viewBox="0 0 24 24" fill="none" stroke="currentColor" stroke-width="2" stroke-linecap="round" stroke-linejoin="round">
    <path d="M15.6 2.7a10 10 0 1 0 5.7 5.7"/><circle cx="12" cy="12" r="2"/><path d="M13.4 10.6 19 5"/>
  </symbol>

  <!-- BadgeCheck / verified -->
  <symbol id="verified" viewBox="0 0 24 24" fill="none" stroke="currentColor" stroke-width="2" stroke-linecap="round" stroke-linejoin="round">
    <path d="M3.85 8.62a4 4 0 0 1 4.78-4.77 4 4 0 0 1 6.74 0 4 4 0 0 1 4.78 4.78 4 4 0 0 1 0 6.74 4 4 0 0 1-4.77 4.78 4 4 0 0 1-6.75 0 4 4 0 0 1-4.78-4.77 4 4 0 0 1 0-6.76Z"/><path d="m9 12 2 2 4-4"/>
  </symbol>

  <!-- ShieldCheck / verified_user -->
  <symbol id="verified_user" viewBox="0 0 24 24" fill="none" stroke="currentColor" stroke-width="2" stroke-linecap="round" stroke-linejoin="round">
    <path d="M20 13c0 5-3.5 7.5-7.66 8.95a1 1 0 0 1-.67-.01C7.5 20.5 4 18 4 13V6a1 1 0 0 1 1-1c2 0 4.5-1.2 6.24-2.72a1.17 1.17 0 0 1 1.52 0C14.51 3.81 17 5 19 5a1 1 0 0 1 1 1z"/><path d="m9 12 2 2 4-4"/>
  </symbol>

  <!-- Volume2 / volume_down -->
  <symbol id="volume_down" viewBox="0 0 24 24" fill="none" stroke="currentColor" stroke-width="2" stroke-linecap="round" stroke-linejoin="round">
    <path d="M11 4.702a.705.705 0 0 0-1.203-.498L6.413 7.587A1.4 1.4 0 0 1 5.416 8H3a1 1 0 0 0-1 1v6a1 1 0 0 0 1 1h2.416a1.4 1.4 0 0 1 .997.413l3.383 3.384A.705.705 0 0 0 11 19.298z"/><path d="M16 9a5 5 0 0 1 0 6"/><path d="M19.364 18.364a9 9 0 0 0 0-12.728"/>
  </symbol>

  <!-- Rotate3d / 360 -->
  <symbol id="360" viewBox="0 0 24 24" fill="none" stroke="currentColor" stroke-width="2" stroke-linecap="round" stroke-linejoin="round">
    <path d="M16.466 7.5C15.643 4.237 13.952 2 12 2 9.239 2 7 6.477 7 12s2.239 10 5 10c.342 0 .677-.069 1-.2"/><path d="m15.194 13.707 3.814 1.86-1.86 3.814"/><path d="M19 15.57c-1.804.885-4.274 1.43-7 1.43-5.523 0-10-2.239-10-5s4.477-5 10-5c4.838 0 8.873 1.718 9.8 4"/>
  </symbol>
</svg>
